<svg xmlns="http://www.w3.org/2000/svg" viewBox="0 0 800 1000" role="img" aria-labelledby="title desc">
  <title id="title">Matron portrait</title>
  <desc id="desc">A protective veil portrait with velvet tones, gold breath, and controlled warmth.</desc>
  <defs>
    <linearGradient id="bg" x1="0" y1="0" x2="0" y2="1">
      <stop offset="0%" stop-color="#11080d"/>
      <stop offset="100%" stop-color="#050406"/>
    </linearGradient>
    <linearGradient id="veil" x1="0" y1="0" x2="1" y2="1">
      <stop offset="0%" stop-color="#b06080" stop-opacity=".28"/>
      <stop offset="100%" stop-color="#ffd65c" stop-opacity=".12"/>
    </linearGradient>
  </defs>
  <rect width="800" height="1000" fill="url(#bg)"/>
  <circle cx="400" cy="264" r="152" fill="none" stroke="#b06080" stroke-width="2" opacity=".28"/>
  <path d="M216 898c42-146 76-244 114-322 18-36 44-96 70-180 26 84 52 144 70 180 38 78 72 176 114 322H216z" fill="#0d070a"/>
  <path d="M290 226c42-62 78-94 110-118 32 24 68 56 110 118l-26 248-84 108-84-108-26-248z" fill="url(#veil)" stroke="#4a2733" stroke-width="3"/>
  <path d="M334 278c18-18 40-26 66-26s48 8 66 26" fill="none" stroke="#ffd65c" stroke-width="3" opacity=".76"/>
  <path d="M346 364c16 10 34 16 54 16s38-6 54-16" fill="none" stroke="#f6d8e2" stroke-width="3" opacity=".84"/>
  <path d="M322 460c22 18 48 28 78 28s56-10 78-28" fill="none" stroke="#74eaff" stroke-width="2.5" opacity=".44"/>
  <path d="M250 806c58-10 108-44 150-102 42 58 92 92 150 102" fill="none" stroke="#b06080" stroke-width="4" opacity=".34"/>
</svg>
