<!--
  TD613 Flow-Core Semantic Motion Bridge Visual Witness [Direction: Aperture Monochrome]
  Relation: created_potential (上)
  Active View ID: cockpit
  Carrier Count: 39 (Distribution: 6 near / 13 mid / 20 far)
  Reduced Motion: DISABLED
  Viewport: 390x844 (viewBox: 200 -220 600 1120)
  Visual Theory: Cold-Cathode Radar Crypt, Telemetric Stencils & Phosphor Reticles
  Claim Ceiling: VISUAL_RELATION != EXTERNAL_REALITY | AMBIENT_MOTION != EVENT_HISTORY | AESTHETIC_BINDING != EMPIRICAL_VALIDATION
-->
<svg xmlns="http://www.w3.org/2000/svg" viewBox="200 -220 600 1120" width="390" height="844" style="background:#020403;">
  <g class="radar-grid" opacity="0.25">
    <circle cx="500" cy="260" r="100" fill="none" stroke="#00f0a8" stroke-width="0.6" stroke-dasharray="3 3"/>
    <circle cx="500" cy="260" r="200" fill="none" stroke="#00f0a8" stroke-width="0.6" stroke-dasharray="3 3"/>
    <circle cx="500" cy="260" r="300" fill="none" stroke="#00f0a8" stroke-width="0.6" stroke-dasharray="3 3"/>
    <circle cx="500" cy="260" r="400" fill="none" stroke="#00f0a8" stroke-width="0.6" stroke-dasharray="3 3"/>
    <line x1="80" y1="260" x2="920" y2="260" stroke="#00f0a8" stroke-width="0.5"/>
    <line x1="500" y1="20" x2="500" y2="500" stroke="#00f0a8" stroke-width="0.5"/>
  </g>
  <g class="radar-field-flight" aria-hidden="true" data-active-relation="created_potential" data-visual-direction="aperture_monochrome">
    <g class="radar-near" transform="translate(289.92 419.37) rotate(5.11) scale(0.811) translate(-289.92 -419.37)">
      <circle cx="289.92" cy="419.37" r="24" fill="#021c13" fill-opacity="0.8" stroke="#00f0a8" stroke-width="1.4" opacity="0.95"/>
      <circle cx="289.92" cy="419.37" r="16" fill="none" stroke="#22d3ee" stroke-width="0.7" stroke-dasharray="2 3" opacity="0.95"/>
      <line x1="261.92" y1="419.37" x2="317.92" y2="419.37" stroke="#00f0a8" stroke-width="0.8" opacity="0.76"/>
      <text x="289.92" y="425.37" font-size="20" font-family="'JetBrains Mono', 'PingFang SC', monospace" font-weight="700" fill="#ffffff" opacity="0.95" text-anchor="middle" dominant-baseline="middle">上</text>
      <text x="305.92" y="403.37" font-size="6" font-family="'JetBrains Mono', monospace" fill="#00f0a8">N00</text>
    </g>
    <g class="radar-far" transform="translate(359.56 402.74) rotate(8.22) scale(0.493) translate(-359.56 -402.74)">
      <rect x="357.56" y="400.74" width="4" height="4" fill="#00f0a8" opacity="0.324"/>
      <circle cx="359.56" cy="402.74" r="6" fill="none" stroke="#00f0a8" stroke-width="0.4" stroke-dasharray="1 2" opacity="0.18"/>
      <text x="364.56" y="405.74" font-size="9" font-family="'PingFang SC', monospace" fill="#10b981" opacity="0.252">上</text>
    </g>
    <g class="radar-far" transform="translate(415.51 383.18) rotate(2.29) scale(0.508) translate(-415.51 -383.18)">
      <rect x="413.51" y="381.18" width="4" height="4" fill="#00f0a8" opacity="0.324"/>
      <circle cx="415.51" cy="383.18" r="6" fill="none" stroke="#00f0a8" stroke-width="0.4" stroke-dasharray="1 2" opacity="0.18"/>
      <text x="420.51" y="386.18" font-size="9" font-family="'PingFang SC', monospace" fill="#10b981" opacity="0.252">上</text>
    </g>
    <g class="radar-far" transform="translate(460.19 368.17) rotate(-5.5) scale(0.516) translate(-460.19 -368.17)">
      <rect x="458.19" y="366.17" width="4" height="4" fill="#00f0a8" opacity="0.324"/>
      <circle cx="460.19" cy="368.17" r="6" fill="none" stroke="#00f0a8" stroke-width="0.4" stroke-dasharray="1 2" opacity="0.18"/>
      <text x="465.19" y="371.17" font-size="9" font-family="'PingFang SC', monospace" fill="#10b981" opacity="0.252">上</text>
    </g>
    <g class="radar-mid" transform="translate(495.52 352.31) rotate(-7.73) scale(0.647) translate(-495.52 -352.31)">
      <line x1="483.52" y1="352.31" x2="507.52" y2="352.31" stroke="#22d3ee" stroke-width="0.8" opacity="0.528"/>
      <line x1="495.52" y1="340.31" x2="495.52" y2="364.31" stroke="#22d3ee" stroke-width="0.8" opacity="0.528"/>
      <circle cx="495.52" cy="352.31" r="5" fill="none" stroke="#fbbf24" stroke-width="0.6" opacity="0.528"/>
      <text x="503.52" y="362.31" font-size="11" font-family="'JetBrains Mono', 'PingFang SC', monospace" fill="#22d3ee" opacity="0.528">上</text>
      <text x="481.52" y="346.31" font-size="5" font-family="'JetBrains Mono', monospace" fill="#94a3b8">TRK-4</text>
    </g>
    <g class="radar-far" transform="translate(534.47 337) rotate(-1.51) scale(0.536) translate(-534.47 -337)">
      <rect x="532.47" y="335" width="4" height="4" fill="#00f0a8" opacity="0.324"/>
      <circle cx="534.47" cy="337" r="6" fill="none" stroke="#00f0a8" stroke-width="0.4" stroke-dasharray="1 2" opacity="0.18"/>
      <text x="539.47" y="340" font-size="9" font-family="'PingFang SC', monospace" fill="#10b981" opacity="0.252">上</text>
    </g>
    <g class="radar-far" transform="translate(582.61 319.65) rotate(6.21) scale(0.55) translate(-582.61 -319.65)">
      <rect x="580.61" y="317.65" width="4" height="4" fill="#00f0a8" opacity="0.324"/>
      <circle cx="582.61" cy="319.65" r="6" fill="none" stroke="#00f0a8" stroke-width="0.4" stroke-dasharray="1 2" opacity="0.18"/>
      <text x="587.61" y="322.65" font-size="9" font-family="'PingFang SC', monospace" fill="#10b981" opacity="0.252">上</text>
    </g>
    <g class="radar-mid" transform="translate(645.43 303.89) rotate(7.44) scale(0.697) translate(-645.43 -303.89)">
      <line x1="633.43" y1="303.89" x2="657.43" y2="303.89" stroke="#22d3ee" stroke-width="0.8" opacity="0.528"/>
      <line x1="645.43" y1="291.89" x2="645.43" y2="315.89" stroke="#22d3ee" stroke-width="0.8" opacity="0.528"/>
      <circle cx="645.43" cy="303.89" r="5" fill="none" stroke="#fbbf24" stroke-width="0.6" opacity="0.528"/>
      <text x="653.43" y="313.89" font-size="11" font-family="'JetBrains Mono', 'PingFang SC', monospace" fill="#22d3ee" opacity="0.528">上</text>
      <text x="631.43" y="297.89" font-size="5" font-family="'JetBrains Mono', monospace" fill="#94a3b8">TRK-7</text>
    </g>
    <g class="radar-mid" transform="translate(707.93 287.78) rotate(0.93) scale(0.703) translate(-707.93 -287.78)">
      <line x1="695.93" y1="287.78" x2="719.93" y2="287.78" stroke="#22d3ee" stroke-width="0.8" opacity="0.528"/>
      <line x1="707.93" y1="275.78" x2="707.93" y2="299.78" stroke="#22d3ee" stroke-width="0.8" opacity="0.528"/>
      <circle cx="707.93" cy="287.78" r="5" fill="none" stroke="#fbbf24" stroke-width="0.6" opacity="0.528"/>
      <text x="715.93" y="297.78" font-size="11" font-family="'JetBrains Mono', 'PingFang SC', monospace" fill="#22d3ee" opacity="0.528">上</text>
      <text x="693.93" y="281.78" font-size="5" font-family="'JetBrains Mono', monospace" fill="#94a3b8">TRK-8</text>
    </g>
    <g class="radar-far" transform="translate(295 271.81) rotate(-6.73) scale(0.582) translate(-295 -271.81)">
      <rect x="293" y="269.81" width="4" height="4" fill="#00f0a8" opacity="0.324"/>
      <circle cx="295" cy="271.81" r="6" fill="none" stroke="#00f0a8" stroke-width="0.4" stroke-dasharray="1 2" opacity="0.18"/>
      <text x="300" y="274.81" font-size="9" font-family="'PingFang SC', monospace" fill="#10b981" opacity="0.252">上</text>
    </g>
    <g class="radar-far" transform="translate(358.54 254.37) rotate(-7.01) scale(0.596) translate(-358.54 -254.37)">
      <rect x="356.54" y="252.37" width="4" height="4" fill="#00f0a8" opacity="0.324"/>
      <circle cx="358.54" cy="254.37" r="6" fill="none" stroke="#00f0a8" stroke-width="0.4" stroke-dasharray="1 2" opacity="0.18"/>
      <text x="363.54" y="257.37" font-size="9" font-family="'PingFang SC', monospace" fill="#10b981" opacity="0.252">上</text>
    </g>
    <g class="radar-near" transform="translate(408.43 238.41) rotate(-0.32) scale(1.02) translate(-408.43 -238.41)">
      <circle cx="408.43" cy="238.41" r="24" fill="#021c13" fill-opacity="0.8" stroke="#00f0a8" stroke-width="1.4" opacity="0.95"/>
      <circle cx="408.43" cy="238.41" r="16" fill="none" stroke="#22d3ee" stroke-width="0.7" stroke-dasharray="2 3" opacity="0.95"/>
      <line x1="380.43" y1="238.41" x2="436.43" y2="238.41" stroke="#00f0a8" stroke-width="0.8" opacity="0.76"/>
      <text x="408.43" y="244.41" font-size="20" font-family="'JetBrains Mono', 'PingFang SC', monospace" font-weight="700" fill="#ffffff" opacity="0.95" text-anchor="middle" dominant-baseline="middle">上</text>
      <text x="424.43" y="222.41" font-size="6" font-family="'JetBrains Mono', monospace" fill="#00f0a8">N011</text>
    </g>
    <g class="radar-mid" transform="translate(456.02 226.75) rotate(6.66) scale(0.752) translate(-456.02 -226.75)">
      <line x1="444.02" y1="226.75" x2="468.02" y2="226.75" stroke="#22d3ee" stroke-width="0.8" opacity="0.528"/>
      <line x1="456.02" y1="214.75" x2="456.02" y2="238.75" stroke="#22d3ee" stroke-width="0.8" opacity="0.528"/>
      <circle cx="456.02" cy="226.75" r="5" fill="none" stroke="#fbbf24" stroke-width="0.6" opacity="0.528"/>
      <text x="464.02" y="236.75" font-size="11" font-family="'JetBrains Mono', 'PingFang SC', monospace" fill="#22d3ee" opacity="0.528">上</text>
      <text x="442.02" y="220.75" font-size="5" font-family="'JetBrains Mono', monospace" fill="#94a3b8">TRK-12</text>
    </g>
    <g class="radar-near" transform="translate(493.26 213.18) rotate(6.39) scale(1.053) translate(-493.26 -213.18)">
      <circle cx="493.26" cy="213.18" r="24" fill="#021c13" fill-opacity="0.8" stroke="#00f0a8" stroke-width="1.4" opacity="0.95"/>
      <circle cx="493.26" cy="213.18" r="16" fill="none" stroke="#22d3ee" stroke-width="0.7" stroke-dasharray="2 3" opacity="0.95"/>
      <line x1="465.26" y1="213.18" x2="521.26" y2="213.18" stroke="#00f0a8" stroke-width="0.8" opacity="0.76"/>
      <text x="493.26" y="219.18" font-size="20" font-family="'JetBrains Mono', 'PingFang SC', monospace" font-weight="700" fill="#ffffff" opacity="0.95" text-anchor="middle" dominant-baseline="middle">上</text>
      <text x="509.26" y="197.18" font-size="6" font-family="'JetBrains Mono', monospace" fill="#00f0a8">N013</text>
    </g>
    <g class="radar-mid" transform="translate(528.8 190.46) rotate(-0.94) scale(0.788) translate(-528.8 -190.46)">
      <line x1="516.8" y1="190.46" x2="540.8" y2="190.46" stroke="#22d3ee" stroke-width="0.8" opacity="0.528"/>
      <line x1="528.8" y1="178.46" x2="528.8" y2="202.46" stroke="#22d3ee" stroke-width="0.8" opacity="0.528"/>
      <circle cx="528.8" cy="190.46" r="5" fill="none" stroke="#fbbf24" stroke-width="0.6" opacity="0.528"/>
      <text x="536.8" y="200.46" font-size="11" font-family="'JetBrains Mono', 'PingFang SC', monospace" fill="#22d3ee" opacity="0.528">上</text>
      <text x="514.8" y="184.46" font-size="5" font-family="'JetBrains Mono', monospace" fill="#94a3b8">TRK-14</text>
    </g>
    <g class="radar-far" transform="translate(582.52 172.91) rotate(-7.36) scale(0.654) translate(-582.52 -172.91)">
      <rect x="580.52" y="170.91" width="4" height="4" fill="#00f0a8" opacity="0.324"/>
      <circle cx="582.52" cy="172.91" r="6" fill="none" stroke="#00f0a8" stroke-width="0.4" stroke-dasharray="1 2" opacity="0.18"/>
      <text x="587.52" y="175.91" font-size="9" font-family="'PingFang SC', monospace" fill="#10b981" opacity="0.252">上</text>
    </g>
    <g class="radar-mid" transform="translate(658.13 160.71) rotate(-6.16) scale(0.833) translate(-658.13 -160.71)">
      <line x1="646.13" y1="160.71" x2="670.13" y2="160.71" stroke="#22d3ee" stroke-width="0.8" opacity="0.528"/>
      <line x1="658.13" y1="148.71" x2="658.13" y2="172.71" stroke="#22d3ee" stroke-width="0.8" opacity="0.528"/>
      <circle cx="658.13" cy="160.71" r="5" fill="none" stroke="#fbbf24" stroke-width="0.6" opacity="0.528"/>
      <text x="666.13" y="170.71" font-size="11" font-family="'JetBrains Mono', 'PingFang SC', monospace" fill="#22d3ee" opacity="0.528">上</text>
      <text x="644.13" y="154.71" font-size="5" font-family="'JetBrains Mono', monospace" fill="#94a3b8">TRK-16</text>
    </g>
    <g class="radar-far" transform="translate(721.02 141.68) rotate(1.69) scale(0.683) translate(-721.02 -141.68)">
      <rect x="719.02" y="139.68" width="4" height="4" fill="#00f0a8" opacity="0.324"/>
      <circle cx="721.02" cy="141.68" r="6" fill="none" stroke="#00f0a8" stroke-width="0.4" stroke-dasharray="1 2" opacity="0.18"/>
      <text x="726.02" y="144.68" font-size="9" font-family="'PingFang SC', monospace" fill="#10b981" opacity="0.252">上</text>
    </g>
    <g class="radar-far" transform="translate(306.78 125.44) rotate(7.64) scale(0.697) translate(-306.78 -125.44)">
      <rect x="304.78" y="123.44" width="4" height="4" fill="#00f0a8" opacity="0.324"/>
      <circle cx="306.78" cy="125.44" r="6" fill="none" stroke="#00f0a8" stroke-width="0.4" stroke-dasharray="1 2" opacity="0.18"/>
      <text x="311.78" y="128.44" font-size="9" font-family="'PingFang SC', monospace" fill="#10b981" opacity="0.252">上</text>
    </g>
    <g class="radar-far" transform="translate(363.01 108.76) rotate(5.86) scale(0.706) translate(-363.01 -108.76)">
      <rect x="361.01" y="106.76" width="4" height="4" fill="#00f0a8" opacity="0.324"/>
      <circle cx="363.01" cy="108.76" r="6" fill="none" stroke="#00f0a8" stroke-width="0.4" stroke-dasharray="1 2" opacity="0.18"/>
      <text x="368.01" y="111.76" font-size="9" font-family="'PingFang SC', monospace" fill="#10b981" opacity="0.252">上</text>
    </g>
    <g class="radar-mid" transform="translate(405.45 91.07) rotate(-2.37) scale(0.876) translate(-405.45 -91.07)">
      <line x1="393.45" y1="91.07" x2="417.45" y2="91.07" stroke="#22d3ee" stroke-width="0.8" opacity="0.528"/>
      <line x1="405.45" y1="79.07" x2="405.45" y2="103.07" stroke="#22d3ee" stroke-width="0.8" opacity="0.528"/>
      <circle cx="405.45" cy="91.07" r="5" fill="none" stroke="#fbbf24" stroke-width="0.6" opacity="0.528"/>
      <text x="413.45" y="101.07" font-size="11" font-family="'JetBrains Mono', 'PingFang SC', monospace" fill="#22d3ee" opacity="0.528">上</text>
      <text x="391.45" y="85.07" font-size="5" font-family="'JetBrains Mono', monospace" fill="#94a3b8">TRK-20</text>
    </g>
    <g class="radar-mid" transform="translate(449.8 78.38) rotate(-7.72) scale(0.889) translate(-449.8 -78.38)">
      <line x1="437.8" y1="78.38" x2="461.8" y2="78.38" stroke="#22d3ee" stroke-width="0.8" opacity="0.528"/>
      <line x1="449.8" y1="66.38" x2="449.8" y2="90.38" stroke="#22d3ee" stroke-width="0.8" opacity="0.528"/>
      <circle cx="449.8" cy="78.38" r="5" fill="none" stroke="#fbbf24" stroke-width="0.6" opacity="0.528"/>
      <text x="457.8" y="88.38" font-size="11" font-family="'JetBrains Mono', 'PingFang SC', monospace" fill="#22d3ee" opacity="0.528">上</text>
      <text x="435.8" y="72.38" font-size="5" font-family="'JetBrains Mono', monospace" fill="#94a3b8">TRK-21</text>
    </g>
    <g class="radar-near" transform="translate(498.82 71.32) rotate(-4.56) scale(1.243) translate(-498.82 -71.32)">
      <circle cx="498.82" cy="71.32" r="24" fill="#021c13" fill-opacity="0.8" stroke="#00f0a8" stroke-width="1.4" opacity="0.95"/>
      <circle cx="498.82" cy="71.32" r="16" fill="none" stroke="#22d3ee" stroke-width="0.7" stroke-dasharray="2 3" opacity="0.95"/>
      <line x1="470.82" y1="71.32" x2="526.8199999999999" y2="71.32" stroke="#00f0a8" stroke-width="0.8" opacity="0.76"/>
      <text x="498.82" y="77.32" font-size="20" font-family="'JetBrains Mono', 'PingFang SC', monospace" font-weight="700" fill="#ffffff" opacity="0.95" text-anchor="middle" dominant-baseline="middle">上</text>
      <text x="514.8199999999999" y="55.31999999999999" font-size="6" font-family="'JetBrains Mono', monospace" fill="#00f0a8">N022</text>
    </g>
    <g class="radar-far" transform="translate(532.91 45.48) rotate(2.82) scale(0.749) translate(-532.91 -45.48)">
      <rect x="530.91" y="43.48" width="4" height="4" fill="#00f0a8" opacity="0.324"/>
      <circle cx="532.91" cy="45.48" r="6" fill="none" stroke="#00f0a8" stroke-width="0.4" stroke-dasharray="1 2" opacity="0.18"/>
      <text x="537.91" y="48.48" font-size="9" font-family="'PingFang SC', monospace" fill="#10b981" opacity="0.252">上</text>
    </g>
    <g class="radar-mid" transform="translate(583.07 24.66) rotate(7.85) scale(0.941) translate(-583.07 -24.66)">
      <line x1="571.07" y1="24.66" x2="595.07" y2="24.66" stroke="#22d3ee" stroke-width="0.8" opacity="0.528"/>
      <line x1="583.07" y1="12.66" x2="583.07" y2="36.66" stroke="#22d3ee" stroke-width="0.8" opacity="0.528"/>
      <circle cx="583.07" cy="24.66" r="5" fill="none" stroke="#fbbf24" stroke-width="0.6" opacity="0.528"/>
      <text x="591.07" y="34.66" font-size="11" font-family="'JetBrains Mono', 'PingFang SC', monospace" fill="#22d3ee" opacity="0.528">上</text>
      <text x="569.07" y="18.66" font-size="5" font-family="'JetBrains Mono', monospace" fill="#94a3b8">TRK-24</text>
    </g>
    <g class="radar-far" transform="translate(656.32 10.8) rotate(4.24) scale(0.774) translate(-656.32 -10.8)">
      <rect x="654.32" y="8.8" width="4" height="4" fill="#00f0a8" opacity="0.324"/>
      <circle cx="656.32" cy="10.8" r="6" fill="none" stroke="#00f0a8" stroke-width="0.4" stroke-dasharray="1 2" opacity="0.18"/>
      <text x="661.32" y="13.8" font-size="9" font-family="'PingFang SC', monospace" fill="#10b981" opacity="0.252">上</text>
    </g>
    <g class="radar-near" transform="translate(726.83 -3.1) rotate(-4.07) scale(1.339) translate(-726.83 3.1)">
      <circle cx="726.83" cy="-3.1" r="24" fill="#021c13" fill-opacity="0.8" stroke="#00f0a8" stroke-width="1.4" opacity="0.95"/>
      <circle cx="726.83" cy="-3.1" r="16" fill="none" stroke="#22d3ee" stroke-width="0.7" stroke-dasharray="2 3" opacity="0.95"/>
      <line x1="698.83" y1="-3.1" x2="754.83" y2="-3.1" stroke="#00f0a8" stroke-width="0.8" opacity="0.76"/>
      <text x="726.83" y="2.9" font-size="20" font-family="'JetBrains Mono', 'PingFang SC', monospace" font-weight="700" fill="#ffffff" opacity="0.95" text-anchor="middle" dominant-baseline="middle">上</text>
      <text x="742.83" y="-19.1" font-size="6" font-family="'JetBrains Mono', monospace" fill="#00f0a8">N026</text>
    </g>
    <g class="radar-far" transform="translate(310.94 -22.11) rotate(-8.13) scale(0.805) translate(-310.94 22.11)">
      <rect x="308.94" y="-24.11" width="4" height="4" fill="#00f0a8" opacity="0.324"/>
      <circle cx="310.94" cy="-22.11" r="6" fill="none" stroke="#00f0a8" stroke-width="0.4" stroke-dasharray="1 2" opacity="0.18"/>
      <text x="315.94" y="-19.11" font-size="9" font-family="'PingFang SC', monospace" fill="#10b981" opacity="0.252">上</text>
    </g>
    <g class="radar-mid" transform="translate(368.09 -36.07) rotate(-3.4) scale(1.013) translate(-368.09 36.07)">
      <line x1="356.09" y1="-36.07" x2="380.09" y2="-36.07" stroke="#22d3ee" stroke-width="0.8" opacity="0.528"/>
      <line x1="368.09" y1="-48.07" x2="368.09" y2="-24.07" stroke="#22d3ee" stroke-width="0.8" opacity="0.528"/>
      <circle cx="368.09" cy="-36.07" r="5" fill="none" stroke="#fbbf24" stroke-width="0.6" opacity="0.528"/>
      <text x="376.09" y="-26.07" font-size="11" font-family="'JetBrains Mono', 'PingFang SC', monospace" fill="#22d3ee" opacity="0.528">上</text>
      <text x="354.09" y="-42.07" font-size="5" font-family="'JetBrains Mono', monospace" fill="#94a3b8">TRK-28</text>
    </g>
    <g class="radar-far" transform="translate(403.42 -56.65) rotate(4.63) scale(0.827) translate(-403.42 56.65)">
      <rect x="401.42" y="-58.65" width="4" height="4" fill="#00f0a8" opacity="0.324"/>
      <circle cx="403.42" cy="-56.65" r="6" fill="none" stroke="#00f0a8" stroke-width="0.4" stroke-dasharray="1 2" opacity="0.18"/>
      <text x="408.42" y="-53.65" font-size="9" font-family="'PingFang SC', monospace" fill="#10b981" opacity="0.252">上</text>
    </g>
    <g class="radar-far" transform="translate(439.21 -73.49) rotate(7.89) scale(0.835) translate(-439.21 73.49)">
      <rect x="437.21" y="-75.49" width="4" height="4" fill="#00f0a8" opacity="0.324"/>
      <circle cx="439.21" cy="-73.49" r="6" fill="none" stroke="#00f0a8" stroke-width="0.4" stroke-dasharray="1 2" opacity="0.18"/>
      <text x="444.21" y="-70.49" font-size="9" font-family="'PingFang SC', monospace" fill="#10b981" opacity="0.252">上</text>
    </g>
    <g class="radar-far" transform="translate(478.78 550.78) rotate(-2.91) scale(0.379) translate(-478.78 -550.78)">
      <rect x="476.78" y="548.78" width="4" height="4" fill="#00f0a8" opacity="0.324"/>
      <circle cx="478.78" cy="550.78" r="6" fill="none" stroke="#00f0a8" stroke-width="0.4" stroke-dasharray="1 2" opacity="0.18"/>
      <text x="483.78" y="553.78" font-size="9" font-family="'PingFang SC', monospace" fill="#10b981" opacity="0.252">上</text>
    </g>
    <g class="radar-mid" transform="translate(525.64 534.84) rotate(5.16) scale(0.48) translate(-525.64 -534.84)">
      <line x1="513.64" y1="534.84" x2="537.64" y2="534.84" stroke="#22d3ee" stroke-width="0.8" opacity="0.528"/>
      <line x1="525.64" y1="522.84" x2="525.64" y2="546.84" stroke="#22d3ee" stroke-width="0.8" opacity="0.528"/>
      <circle cx="525.64" cy="534.84" r="5" fill="none" stroke="#fbbf24" stroke-width="0.6" opacity="0.528"/>
      <text x="533.64" y="544.84" font-size="11" font-family="'JetBrains Mono', 'PingFang SC', monospace" fill="#22d3ee" opacity="0.528">上</text>
      <text x="511.64" y="528.84" font-size="5" font-family="'JetBrains Mono', monospace" fill="#94a3b8">TRK-32</text>
    </g>
    <g class="radar-near" transform="translate(586.31 518.07) rotate(7.72) scale(0.678) translate(-586.31 -518.07)">
      <circle cx="586.31" cy="518.07" r="24" fill="#021c13" fill-opacity="0.8" stroke="#00f0a8" stroke-width="1.4" opacity="0.95"/>
      <circle cx="586.31" cy="518.07" r="16" fill="none" stroke="#22d3ee" stroke-width="0.7" stroke-dasharray="2 3" opacity="0.95"/>
      <line x1="558.31" y1="518.07" x2="614.31" y2="518.07" stroke="#00f0a8" stroke-width="0.8" opacity="0.76"/>
      <text x="586.31" y="524.07" font-size="20" font-family="'JetBrains Mono', 'PingFang SC', monospace" font-weight="700" fill="#ffffff" opacity="0.95" text-anchor="middle" dominant-baseline="middle">上</text>
      <text x="602.31" y="502.07000000000005" font-size="6" font-family="'JetBrains Mono', monospace" fill="#00f0a8">N033</text>
    </g>
    <g class="radar-far" transform="translate(660.61 503.85) rotate(2.28) scale(0.412) translate(-660.61 -503.85)">
      <rect x="658.61" y="501.85" width="4" height="4" fill="#00f0a8" opacity="0.324"/>
      <circle cx="660.61" cy="503.85" r="6" fill="none" stroke="#00f0a8" stroke-width="0.4" stroke-dasharray="1 2" opacity="0.18"/>
      <text x="665.61" y="506.85" font-size="9" font-family="'PingFang SC', monospace" fill="#10b981" opacity="0.252">上</text>
    </g>
    <g class="radar-mid" transform="translate(725.61 484.81) rotate(-5.79) scale(0.523) translate(-725.61 -484.81)">
      <line x1="713.61" y1="484.81" x2="737.61" y2="484.81" stroke="#22d3ee" stroke-width="0.8" opacity="0.528"/>
      <line x1="725.61" y1="472.81" x2="725.61" y2="496.81" stroke="#22d3ee" stroke-width="0.8" opacity="0.528"/>
      <circle cx="725.61" cy="484.81" r="5" fill="none" stroke="#fbbf24" stroke-width="0.6" opacity="0.528"/>
      <text x="733.61" y="494.81" font-size="11" font-family="'JetBrains Mono', 'PingFang SC', monospace" fill="#22d3ee" opacity="0.528">上</text>
      <text x="711.61" y="478.81" font-size="5" font-family="'JetBrains Mono', monospace" fill="#94a3b8">TRK-35</text>
    </g>
    <g class="radar-mid" transform="translate(305.62 466.33) rotate(-7.71) scale(0.547) translate(-305.62 -466.33)">
      <line x1="293.62" y1="466.33" x2="317.62" y2="466.33" stroke="#22d3ee" stroke-width="0.8" opacity="0.528"/>
      <line x1="305.62" y1="454.33" x2="305.62" y2="478.33" stroke="#22d3ee" stroke-width="0.8" opacity="0.528"/>
      <circle cx="305.62" cy="466.33" r="5" fill="none" stroke="#fbbf24" stroke-width="0.6" opacity="0.528"/>
      <text x="313.62" y="476.33" font-size="11" font-family="'JetBrains Mono', 'PingFang SC', monospace" fill="#22d3ee" opacity="0.528">上</text>
      <text x="291.62" y="460.33" font-size="5" font-family="'JetBrains Mono', monospace" fill="#94a3b8">TRK-36</text>
    </g>
    <g class="radar-far" transform="translate(355.73 450.55) rotate(-1.33) scale(0.454) translate(-355.73 -450.55)">
      <rect x="353.73" y="448.55" width="4" height="4" fill="#00f0a8" opacity="0.324"/>
      <circle cx="355.73" cy="450.55" r="6" fill="none" stroke="#00f0a8" stroke-width="0.4" stroke-dasharray="1 2" opacity="0.18"/>
      <text x="360.73" y="453.55" font-size="9" font-family="'PingFang SC', monospace" fill="#10b981" opacity="0.252">上</text>
    </g>
    <g class="radar-far" transform="translate(397.05 433.51) rotate(6.28) scale(0.468) translate(-397.05 -433.51)">
      <rect x="395.05" y="431.51" width="4" height="4" fill="#00f0a8" opacity="0.324"/>
      <circle cx="397.05" cy="433.51" r="6" fill="none" stroke="#00f0a8" stroke-width="0.4" stroke-dasharray="1 2" opacity="0.18"/>
      <text x="402.05" y="436.51" font-size="9" font-family="'PingFang SC', monospace" fill="#10b981" opacity="0.252">上</text>
    </g>
  </g>
  <g class="radar-center-aperture" text-anchor="middle" dominant-baseline="middle">
    <circle cx="500" cy="260" r="68" fill="#021c13" stroke="#00f0a8" stroke-width="1.8" opacity="0.9"/>
    <circle cx="500" cy="260" r="58" fill="none" stroke="#22d3ee" stroke-width="0.6" stroke-dasharray="3 3" opacity="0.6"/>
    <text x="500" y="268" font-size="102" font-family="'JetBrains Mono', 'PingFang SC', monospace" font-weight="700" fill="#00f0a8" opacity="0.98">上</text>
    <text x="500" y="318" font-size="9" font-family="'JetBrains Mono', monospace" fill="#fbbf24" letter-spacing="3" opacity="0.9">AZ-352° // STAT:LOCK // CREATED_POTENTIAL</text>
  </g>
</svg>