<!--
  TD613 Flow-Core Semantic Motion Bridge Visual Witness [Direction: Lithic Tectonic]
  Relation: release (出)
  Active View ID: cockpit
  Carrier Count: 39 (Distribution: 6 near / 13 mid / 20 far)
  Reduced Motion: DISABLED
  Viewport: 1000x520 (viewBox: 0 0 1000 520)
  Visual Theory: Architectural Basalt Monolith & High-Relief Tectonic Shard Observatory
  Claim Ceiling: VISUAL_RELATION != EXTERNAL_REALITY | AMBIENT_MOTION != EVENT_HISTORY | AESTHETIC_BINDING != EMPIRICAL_VALIDATION
-->
<svg xmlns="http://www.w3.org/2000/svg" viewBox="0 0 1000 520" width="1000" height="520" style="background:#08090d;">
  <defs>
    <pattern id="lithicGrid" width="60" height="60" patternUnits="userSpaceOnUse">
      <path d="M 60 0 L 0 0 0 60" fill="none" stroke="#161a24" stroke-width="0.6" stroke-dasharray="2 4"/>
    </pattern>
  </defs>
  <rect width="100%" height="100%" fill="url(#lithicGrid)" opacity="0.8"/>
  <g class="lithic-field-flight" aria-hidden="true" data-active-relation="release" data-visual-direction="lithic_tectonic">
    <g class="lithic-near" transform="translate(394.87 116.8) rotate(-15.79) scale(0.922) translate(-394.87 -116.8)">
      <rect x="352.87" y="92.8" width="84" height="48" fill="#141822" stroke="#e2b714" stroke-width="1.2" opacity="0.808" rx="2"/>
      <line x1="352.87" y1="116.8" x2="436.87" y2="116.8" stroke="#e2b714" stroke-width="0.5" stroke-dasharray="2 2" opacity="0.5"/>
      <text x="394.87" y="124.8" font-size="28" font-family="'Cinzel', 'Noto Serif SC', 'PingFang SC', serif" font-weight="900" fill="#ede9e3" opacity="0.808" text-anchor="middle" dominant-baseline="middle">出</text>
      <text x="426.87" y="102.8" font-size="7" font-family="'JetBrains Mono', monospace" fill="#e2b714" opacity="0.9">P0</text>
    </g>
    <g class="lithic-far" transform="translate(625.12 172.09) rotate(16.79) scale(0.54) translate(-625.12 -172.09)">
      <polygon points="625.12,167.09 629.12,175.09 621.12,175.09" fill="#2a303c" stroke="#3d4656" stroke-width="0.5" opacity="0.24480000000000002"/>
      <text x="625.12" y="176.09" font-size="10" font-family="'PingFang SC', monospace" fill="#64748b" opacity="0.306">出</text>
    </g>
    <g class="lithic-far" transform="translate(359.6 189.03) rotate(-17.29) scale(0.553) translate(-359.6 -189.03)">
      <polygon points="359.6,184.03 363.6,192.03 355.6,192.03" fill="#2a303c" stroke="#3d4656" stroke-width="0.5" opacity="0.24480000000000002"/>
      <text x="359.6" y="193.03" font-size="10" font-family="'PingFang SC', monospace" fill="#64748b" opacity="0.306">出</text>
    </g>
    <g class="lithic-far" transform="translate(666.98 198.49) rotate(17.97) scale(0.561) translate(-666.98 -198.49)">
      <polygon points="666.98,193.49 670.98,201.49 662.98,201.49" fill="#2a303c" stroke="#3d4656" stroke-width="0.5" opacity="0.24480000000000002"/>
      <text x="666.98" y="202.49" font-size="10" font-family="'PingFang SC', monospace" fill="#64748b" opacity="0.306">出</text>
    </g>
    <g class="lithic-mid" transform="translate(315.82 229.07) rotate(-18.43) scale(0.704) translate(-315.82 -229.07)">
      <line x1="287.82" y1="229.07" x2="343.82" y2="229.07" stroke="#8b95a5" stroke-width="1" opacity="0.449"/>
      <circle cx="315.82" cy="229.07" r="2.5" fill="#8b95a5" opacity="0.449"/>
      <text x="323.82" y="223.07" font-size="14" font-family="'PingFang SC', monospace" fill="#8b95a5" opacity="0.449">出</text>
      <text x="289.82" y="225.07" font-size="6" font-family="'JetBrains Mono', monospace" fill="#566171">Δ4</text>
    </g>
    <g class="lithic-far" transform="translate(702.53 293.5) rotate(19.51) scale(0.584) translate(-702.53 -293.5)">
      <polygon points="702.53,288.5 706.53,296.5 698.53,296.5" fill="#2a303c" stroke="#3d4656" stroke-width="0.5" opacity="0.24480000000000002"/>
      <text x="702.53" y="297.5" font-size="10" font-family="'PingFang SC', monospace" fill="#64748b" opacity="0.306">出</text>
    </g>
    <g class="lithic-far" transform="translate(279.93 368.02) rotate(-19.88) scale(0.587) translate(-279.93 -368.02)">
      <polygon points="279.93,363.02 283.93,371.02 275.93,371.02" fill="#2a303c" stroke="#3d4656" stroke-width="0.5" opacity="0.24480000000000002"/>
      <text x="279.93" y="372.02" font-size="10" font-family="'PingFang SC', monospace" fill="#64748b" opacity="0.306">出</text>
    </g>
    <g class="lithic-mid" transform="translate(738.94 407.6) rotate(20.61) scale(0.739) translate(-738.94 -407.6)">
      <line x1="710.94" y1="407.6" x2="766.94" y2="407.6" stroke="#8b95a5" stroke-width="1" opacity="0.449"/>
      <circle cx="738.94" cy="407.6" r="2.5" fill="#8b95a5" opacity="0.449"/>
      <text x="746.94" y="401.6" font-size="14" font-family="'PingFang SC', monospace" fill="#8b95a5" opacity="0.449">出</text>
      <text x="712.94" y="403.6" font-size="6" font-family="'JetBrains Mono', monospace" fill="#566171">Δ7</text>
    </g>
    <g class="lithic-mid" transform="translate(234.47 418.45) rotate(-21.44) scale(0.756) translate(-234.47 -418.45)">
      <line x1="206.47" y1="418.45" x2="262.47" y2="418.45" stroke="#8b95a5" stroke-width="1" opacity="0.449"/>
      <circle cx="234.47" cy="418.45" r="2.5" fill="#8b95a5" opacity="0.449"/>
      <text x="242.47" y="412.45" font-size="14" font-family="'PingFang SC', monospace" fill="#8b95a5" opacity="0.449">出</text>
      <text x="208.47" y="414.45" font-size="6" font-family="'JetBrains Mono', monospace" fill="#566171">Δ8</text>
    </g>
    <g class="lithic-far" transform="translate(783.75 71.19) rotate(21.84) scale(0.622) translate(-783.75 -71.19)">
      <polygon points="783.75,66.19 787.75,74.19 779.75,74.19" fill="#2a303c" stroke="#3d4656" stroke-width="0.5" opacity="0.24480000000000002"/>
      <text x="783.75" y="75.19" font-size="10" font-family="'PingFang SC', monospace" fill="#64748b" opacity="0.306">出</text>
    </g>
    <g class="lithic-far" transform="translate(195.97 111.82) rotate(-22.47) scale(0.63) translate(-195.97 -111.82)">
      <polygon points="195.97,106.82 199.97,114.82 191.97,114.82" fill="#2a303c" stroke="#3d4656" stroke-width="0.5" opacity="0.24480000000000002"/>
      <text x="195.97" y="115.82" font-size="10" font-family="'PingFang SC', monospace" fill="#64748b" opacity="0.306">出</text>
    </g>
    <g class="lithic-near" transform="translate(816.96 179.43) rotate(23.51) scale(1.08) translate(-816.96 -179.43)">
      <rect x="774.96" y="155.43" width="84" height="48" fill="#141822" stroke="#e2b714" stroke-width="1.2" opacity="0.808" rx="2"/>
      <line x1="774.96" y1="179.43" x2="858.96" y2="179.43" stroke="#e2b714" stroke-width="0.5" stroke-dasharray="2 2" opacity="0.5"/>
      <text x="816.96" y="187.43" font-size="28" font-family="'Cinzel', 'Noto Serif SC', 'PingFang SC', serif" font-weight="900" fill="#ede9e3" opacity="0.808" text-anchor="middle" dominant-baseline="middle">出</text>
      <text x="848.96" y="165.43" font-size="7" font-family="'JetBrains Mono', monospace" fill="#e2b714" opacity="0.9">P11</text>
    </g>
    <g class="lithic-mid" transform="translate(165.16 256.42) rotate(-24.09) scale(0.795) translate(-165.16 -256.42)">
      <line x1="137.16" y1="256.42" x2="193.16" y2="256.42" stroke="#8b95a5" stroke-width="1" opacity="0.449"/>
      <circle cx="165.16" cy="256.42" r="2.5" fill="#8b95a5" opacity="0.449"/>
      <text x="173.16" y="250.42000000000002" font-size="14" font-family="'PingFang SC', monospace" fill="#8b95a5" opacity="0.449">出</text>
      <text x="139.16" y="252.42000000000002" font-size="6" font-family="'JetBrains Mono', monospace" fill="#566171">Δ12</text>
    </g>
    <g class="lithic-near" transform="translate(877.53 290.46) rotate(25.09) scale(1.154) translate(-877.53 -290.46)">
      <rect x="835.53" y="266.46" width="84" height="48" fill="#141822" stroke="#e2b714" stroke-width="1.2" opacity="0.808" rx="2"/>
      <line x1="835.53" y1="290.46" x2="919.53" y2="290.46" stroke="#e2b714" stroke-width="0.5" stroke-dasharray="2 2" opacity="0.5"/>
      <text x="877.53" y="298.46" font-size="28" font-family="'Cinzel', 'Noto Serif SC', 'PingFang SC', serif" font-weight="900" fill="#ede9e3" opacity="0.808" text-anchor="middle" dominant-baseline="middle">出</text>
      <text x="909.53" y="276.46" font-size="7" font-family="'JetBrains Mono', monospace" fill="#e2b714" opacity="0.9">P13</text>
    </g>
    <g class="lithic-mid" transform="translate(118.92 298.88) rotate(-25.42) scale(0.814) translate(-118.92 -298.88)">
      <line x1="90.92" y1="298.88" x2="146.92000000000002" y2="298.88" stroke="#8b95a5" stroke-width="1" opacity="0.449"/>
      <circle cx="118.92" cy="298.88" r="2.5" fill="#8b95a5" opacity="0.449"/>
      <text x="126.92" y="292.88" font-size="14" font-family="'PingFang SC', monospace" fill="#8b95a5" opacity="0.449">出</text>
      <text x="92.92" y="294.88" font-size="6" font-family="'JetBrains Mono', monospace" fill="#566171">Δ14</text>
    </g>
    <g class="lithic-far" transform="translate(902.5 308.87) rotate(25.98) scale(0.681) translate(-902.5 -308.87)">
      <polygon points="902.5,303.87 906.5,311.87 898.5,311.87" fill="#2a303c" stroke="#3d4656" stroke-width="0.5" opacity="0.24480000000000002"/>
      <text x="902.5" y="312.87" font-size="10" font-family="'PingFang SC', monospace" fill="#64748b" opacity="0.306">出</text>
    </g>
    <g class="lithic-mid" transform="translate(72.32 353.97) rotate(-26.7) scale(0.846) translate(-72.32 -353.97)">
      <line x1="44.31999999999999" y1="353.97" x2="100.32" y2="353.97" stroke="#8b95a5" stroke-width="1" opacity="0.449"/>
      <circle cx="72.32" cy="353.97" r="2.5" fill="#8b95a5" opacity="0.449"/>
      <text x="80.32" y="347.97" font-size="14" font-family="'PingFang SC', monospace" fill="#8b95a5" opacity="0.449">出</text>
      <text x="46.31999999999999" y="349.97" font-size="6" font-family="'JetBrains Mono', monospace" fill="#566171">Δ16</text>
    </g>
    <g class="lithic-far" transform="translate(941.65 426.18) rotate(27.36) scale(0.7) translate(-941.65 -426.18)">
      <polygon points="941.65,421.18 945.65,429.18 937.65,429.18" fill="#2a303c" stroke="#3d4656" stroke-width="0.5" opacity="0.24480000000000002"/>
      <text x="941.65" y="430.18" font-size="10" font-family="'PingFang SC', monospace" fill="#64748b" opacity="0.306">出</text>
    </g>
    <g class="lithic-far" transform="translate(38.22 129.81) rotate(-27.97) scale(0.715) translate(-38.22 -129.81)">
      <polygon points="38.22,124.81 42.22,132.81 34.22,132.81" fill="#2a303c" stroke="#3d4656" stroke-width="0.5" opacity="0.24480000000000002"/>
      <text x="38.22" y="133.81" font-size="10" font-family="'PingFang SC', monospace" fill="#64748b" opacity="0.306">出</text>
    </g>
    <g class="lithic-far" transform="translate(986.24 162.99) rotate(28.96) scale(0.718) translate(-986.24 -162.99)">
      <polygon points="986.24,157.99 990.24,165.99 982.24,165.99" fill="#2a303c" stroke="#3d4656" stroke-width="0.5" opacity="0.24480000000000002"/>
      <text x="986.24" y="166.99" font-size="10" font-family="'PingFang SC', monospace" fill="#64748b" opacity="0.306">出</text>
    </g>
    <g class="lithic-mid" transform="translate(3.52 172.8) rotate(-29.13) scale(0.903) translate(-3.52 -172.8)">
      <line x1="-24.48" y1="172.8" x2="31.52" y2="172.8" stroke="#8b95a5" stroke-width="1" opacity="0.449"/>
      <circle cx="3.52" cy="172.8" r="2.5" fill="#8b95a5" opacity="0.449"/>
      <text x="11.52" y="166.8" font-size="14" font-family="'PingFang SC', monospace" fill="#8b95a5" opacity="0.449">出</text>
      <text x="-22.48" y="168.8" font-size="6" font-family="'JetBrains Mono', monospace" fill="#566171">Δ20</text>
    </g>
    <g class="lithic-mid" transform="translate(1032.24 193.03) rotate(30.21) scale(0.916) translate(-1032.24 -193.03)">
      <line x1="1004.24" y1="193.03" x2="1060.24" y2="193.03" stroke="#8b95a5" stroke-width="1" opacity="0.449"/>
      <circle cx="1032.24" cy="193.03" r="2.5" fill="#8b95a5" opacity="0.449"/>
      <text x="1040.24" y="187.03" font-size="14" font-family="'PingFang SC', monospace" fill="#8b95a5" opacity="0.449">出</text>
      <text x="1006.24" y="189.03" font-size="6" font-family="'JetBrains Mono', monospace" fill="#566171">Δ21</text>
    </g>
    <g class="lithic-near" transform="translate(-48.68 239.69) rotate(-30.67) scale(1.259) translate(48.68 -239.69)">
      <rect x="-90.68" y="215.69" width="84" height="48" fill="#141822" stroke="#e2b714" stroke-width="1.2" opacity="0.808" rx="2"/>
      <line x1="-90.68" y1="239.69" x2="-6.68" y2="239.69" stroke="#e2b714" stroke-width="0.5" stroke-dasharray="2 2" opacity="0.5"/>
      <text x="-48.68" y="247.69" font-size="28" font-family="'Cinzel', 'Noto Serif SC', 'PingFang SC', serif" font-weight="900" fill="#ede9e3" opacity="0.808" text-anchor="middle" dominant-baseline="middle">出</text>
      <text x="-16.68" y="225.69" font-size="7" font-family="'JetBrains Mono', monospace" fill="#e2b714" opacity="0.9">P22</text>
    </g>
    <g class="lithic-far" transform="translate(1061.71 313.64) rotate(31.59) scale(0.756) translate(-1061.71 -313.64)">
      <polygon points="1061.71,308.64 1065.71,316.64 1057.71,316.64" fill="#2a303c" stroke="#3d4656" stroke-width="0.5" opacity="0.25680000000000003"/>
      <text x="1061.71" y="317.64" font-size="10" font-family="'PingFang SC', monospace" fill="#64748b" opacity="0.321">出</text>
    </g>
    <g class="lithic-mid" transform="translate(-79.64 371.83) rotate(-31.97) scale(0.95) translate(79.64 -371.83)">
      <line x1="-107.64" y1="371.83" x2="-51.64" y2="371.83" stroke="#8b95a5" stroke-width="1" opacity="0.404"/>
      <circle cx="-79.64" cy="371.83" r="2.5" fill="#8b95a5" opacity="0.404"/>
      <text x="-71.64" y="365.83" font-size="14" font-family="'PingFang SC', monospace" fill="#8b95a5" opacity="0.404">出</text>
      <text x="-105.64" y="367.83" font-size="6" font-family="'JetBrains Mono', monospace" fill="#566171">Δ24</text>
    </g>
    <g class="lithic-far" transform="translate(1100.78 394.38) rotate(32.62) scale(0.779) translate(-1100.78 -394.38)">
      <polygon points="1100.78,389.38 1104.78,397.38 1096.78,397.38" fill="#2a303c" stroke="#3d4656" stroke-width="0.5" opacity="0.18320000000000003"/>
      <text x="1100.78" y="398.38" font-size="10" font-family="'PingFang SC', monospace" fill="#64748b" opacity="0.229">出</text>
    </g>
    <g class="lithic-near" transform="translate(-125.44 394.6) rotate(-33.53) scale(1.381) translate(125.44 -394.6)">
      <rect x="-167.44" y="370.6" width="84" height="48" fill="#141822" stroke="#e2b714" stroke-width="1.2" opacity="0.483" rx="2"/>
      <line x1="-167.44" y1="394.6" x2="-83.44" y2="394.6" stroke="#e2b714" stroke-width="0.5" stroke-dasharray="2 2" opacity="0.5"/>
      <text x="-125.44" y="402.6" font-size="28" font-family="'Cinzel', 'Noto Serif SC', 'PingFang SC', serif" font-weight="900" fill="#ede9e3" opacity="0.483" text-anchor="middle" dominant-baseline="middle">出</text>
      <text x="-93.44" y="380.6" font-size="7" font-family="'JetBrains Mono', monospace" fill="#e2b714" opacity="0.9">P26</text>
    </g>
    <g class="lithic-far" transform="translate(1145.67 67.2) rotate(34.17) scale(0.801) translate(-1145.67 -67.2)">
      <polygon points="1145.67,62.2 1149.67,70.2 1141.67,70.2" fill="#2a303c" stroke="#3d4656" stroke-width="0.5" opacity="0.10960000000000002"/>
      <text x="1145.67" y="71.2" font-size="10" font-family="'PingFang SC', monospace" fill="#64748b" opacity="0.137">出</text>
    </g>
    <g class="lithic-mid" transform="translate(-164.71 122.24) rotate(-34.59) scale(1.01) translate(164.71 -122.24)">
      <line x1="-192.71" y1="122.24" x2="-136.71" y2="122.24" stroke="#8b95a5" stroke-width="1" opacity="0.133"/>
      <circle cx="-164.71" cy="122.24" r="2.5" fill="#8b95a5" opacity="0.133"/>
      <text x="-156.71" y="116.24" font-size="14" font-family="'PingFang SC', monospace" fill="#8b95a5" opacity="0.133">出</text>
      <text x="-190.71" y="118.24" font-size="6" font-family="'JetBrains Mono', monospace" fill="#566171">Δ28</text>
    </g>
    <g class="lithic-far" transform="translate(1182.13 198.74) rotate(35.3) scale(0.815) translate(-1182.13 -198.74)">
      <polygon points="1182.13,193.74 1186.13,201.74 1178.13,201.74" fill="#2a303c" stroke="#3d4656" stroke-width="0.5" opacity="0.064"/>
      <text x="1182.13" y="202.74" font-size="10" font-family="'PingFang SC', monospace" fill="#64748b" opacity="0.08">出</text>
    </g>
    <g class="lithic-far" transform="translate(574.81 187.32) rotate(-10.07) scale(0.441) translate(-574.81 -187.32)">
      <polygon points="574.81,182.32 578.81,190.32 570.81,190.32" fill="#2a303c" stroke="#3d4656" stroke-width="0.5" opacity="0.24480000000000002"/>
      <text x="574.81" y="191.32" font-size="10" font-family="'PingFang SC', monospace" fill="#64748b" opacity="0.306">出</text>
    </g>
    <g class="lithic-far" transform="translate(444.89 250.82) rotate(10.81) scale(0.451) translate(-444.89 -250.82)">
      <polygon points="444.89,245.82 448.89,253.82 440.89,253.82" fill="#2a303c" stroke="#3d4656" stroke-width="0.5" opacity="0.24480000000000002"/>
      <text x="444.89" y="254.82" font-size="10" font-family="'PingFang SC', monospace" fill="#64748b" opacity="0.306">出</text>
    </g>
    <g class="lithic-mid" transform="translate(533.83 322.35) rotate(-11.57) scale(0.566) translate(-533.83 -322.35)">
      <line x1="505.83000000000004" y1="322.35" x2="561.83" y2="322.35" stroke="#8b95a5" stroke-width="1" opacity="0.449"/>
      <circle cx="533.83" cy="322.35" r="2.5" fill="#8b95a5" opacity="0.449"/>
      <text x="541.83" y="316.35" font-size="14" font-family="'PingFang SC', monospace" fill="#8b95a5" opacity="0.449">出</text>
      <text x="507.83000000000004" y="318.35" font-size="6" font-family="'JetBrains Mono', monospace" fill="#566171">Δ32</text>
    </g>
    <g class="lithic-near" transform="translate(476.92 368.06) rotate(11.92) scale(0.801) translate(-476.92 -368.06)">
      <rect x="434.92" y="344.06" width="84" height="48" fill="#141822" stroke="#e2b714" stroke-width="1.2" opacity="0.808" rx="2"/>
      <line x1="434.92" y1="368.06" x2="518.9200000000001" y2="368.06" stroke="#e2b714" stroke-width="0.5" stroke-dasharray="2 2" opacity="0.5"/>
      <text x="476.92" y="376.06" font-size="28" font-family="'Cinzel', 'Noto Serif SC', 'PingFang SC', serif" font-weight="900" fill="#ede9e3" opacity="0.808" text-anchor="middle" dominant-baseline="middle">出</text>
      <text x="508.92" y="354.06" font-size="7" font-family="'JetBrains Mono', monospace" fill="#e2b714" opacity="0.9">P33</text>
    </g>
    <g class="lithic-far" transform="translate(496.11 386.87) rotate(-12.93) scale(0.481) translate(-496.11 -386.87)">
      <polygon points="496.11,381.87 500.11,389.87 492.11,389.87" fill="#2a303c" stroke="#3d4656" stroke-width="0.5" opacity="0.24480000000000002"/>
      <text x="496.11" y="390.87" font-size="10" font-family="'PingFang SC', monospace" fill="#64748b" opacity="0.306">出</text>
    </g>
    <g class="lithic-mid" transform="translate(520.63 394.74) rotate(12.83) scale(0.608) translate(-520.63 -394.74)">
      <line x1="492.63" y1="394.74" x2="548.63" y2="394.74" stroke="#8b95a5" stroke-width="1" opacity="0.449"/>
      <circle cx="520.63" cy="394.74" r="2.5" fill="#8b95a5" opacity="0.449"/>
      <text x="528.63" y="388.74" font-size="14" font-family="'PingFang SC', monospace" fill="#8b95a5" opacity="0.449">出</text>
      <text x="494.63" y="390.74" font-size="6" font-family="'JetBrains Mono', monospace" fill="#566171">Δ35</text>
    </g>
    <g class="lithic-mid" transform="translate(463.88 70.66) rotate(-14.2) scale(0.625) translate(-463.88 -70.66)">
      <line x1="435.88" y1="70.66" x2="491.88" y2="70.66" stroke="#8b95a5" stroke-width="1" opacity="0.449"/>
      <circle cx="463.88" cy="70.66" r="2.5" fill="#8b95a5" opacity="0.449"/>
      <text x="471.88" y="64.66" font-size="14" font-family="'PingFang SC', monospace" fill="#8b95a5" opacity="0.449">出</text>
      <text x="437.88" y="66.66" font-size="6" font-family="'JetBrains Mono', monospace" fill="#566171">Δ36</text>
    </g>
    <g class="lithic-far" transform="translate(560.15 134.66) rotate(14.69) scale(0.51) translate(-560.15 -134.66)">
      <polygon points="560.15,129.66 564.15,137.66 556.15,137.66" fill="#2a303c" stroke="#3d4656" stroke-width="0.5" opacity="0.24480000000000002"/>
      <text x="560.15" y="138.66" font-size="10" font-family="'PingFang SC', monospace" fill="#64748b" opacity="0.306">出</text>
    </g>
    <g class="lithic-far" transform="translate(414.63 205.82) rotate(-15.36) scale(0.518) translate(-414.63 -205.82)">
      <polygon points="414.63,200.82 418.63,208.82 410.63,208.82" fill="#2a303c" stroke="#3d4656" stroke-width="0.5" opacity="0.24480000000000002"/>
      <text x="414.63" y="209.82" font-size="10" font-family="'PingFang SC', monospace" fill="#64748b" opacity="0.306">出</text>
    </g>
  </g>
  <g class="lithic-center-monolith" text-anchor="middle" dominant-baseline="middle">
    <rect x="415" y="175" width="170" height="170" fill="#10131c" stroke="#2c3444" stroke-width="1.5" rx="3" opacity="0.92"/>
    <rect x="420" y="180" width="160" height="160" fill="none" stroke="#e2b714" stroke-width="0.5" stroke-dasharray="3 3" opacity="0.4"/>
    <text x="500" y="255" font-size="104" font-family="'Cinzel', 'Noto Serif SC', 'PingFang SC', serif" font-weight="900" fill="#ede9e3" opacity="0.95">出</text>
    <text x="500" y="322" font-size="9" font-family="'JetBrains Mono', monospace" fill="#e2b714" letter-spacing="3" opacity="0.9">SEC6 // LITHIC-TECTONIC // RELEASE</text>
  </g>
</svg>