<!--
  TD613 Flow-Core Semantic Motion Bridge Visual Witness
  Relation: recurrence (米)
  Active View ID: cockpit
  Carrier Count: 39 (Distribution: 6 near / 13 mid / 20 far)
  Reduced Motion: DISABLED
  Viewport: 390x844 (viewBox: 200 -220 600 1120)
  Claim Ceiling: VISUAL_RELATION != EXTERNAL_REALITY | AMBIENT_MOTION != EVENT_HISTORY | AESTHETIC_BINDING != EMPIRICAL_VALIDATION
-->
<svg xmlns="http://www.w3.org/2000/svg" viewBox="200 -220 600 1120" width="390" height="844" style="background:#0a0a0c;">
  <style>
    .flight-near { font-family: 'JetBrains Mono', 'PingFang SC', monospace; font-weight: bold; }
    .flight-mid  { font-family: 'JetBrains Mono', 'PingFang SC', monospace; }
    .flight-far  { font-family: 'JetBrains Mono', 'PingFang SC', monospace; opacity: 0.20; }
  </style>
  <g class="loom-field-flight" aria-hidden="true" data-active-relation="recurrence">
    <text x="646.11" y="329.12" font-size="184" fill="#f3bd86" class="flight-near" opacity="0.95" transform="translate(646.11 329.12) rotate(10.13) scale(1.291) translate(-646.11 -329.12)" text-anchor="middle" dominant-baseline="middle">米</text>
    <text x="467.48" y="365.01" font-size="26" fill="#b69be9" class="flight-far" opacity="0.36" transform="translate(467.48 365.01) rotate(14.06) scale(0.542) translate(-467.48 -365.01)" text-anchor="middle" dominant-baseline="middle">米</text>
    <text x="247.87" y="340.4" font-size="26" fill="#b69be9" class="flight-far" opacity="0.36" transform="translate(247.87 340.4) rotate(8.84) scale(0.411) translate(-247.87 -340.4)" text-anchor="middle" dominant-baseline="middle">米</text>
    <text x="132.14" y="249.27" font-size="26" fill="#b69be9" class="flight-far" opacity="0.36" transform="translate(132.14 249.27) rotate(-1.33) scale(0.61) translate(-132.14 -249.27)" text-anchor="middle" dominant-baseline="middle">米</text>
    <text x="217.83" y="130.83" font-size="56" fill="#b69be9" class="flight-mid" opacity="0.528" transform="translate(217.83 130.83) rotate(-10.7) scale(0.92) translate(-217.83 -130.83)" text-anchor="middle" dominant-baseline="middle">米</text>
    <text x="531.72" y="75.76" font-size="26" fill="#9ce7e4" class="flight-far" opacity="0.36" transform="translate(531.72 75.76) rotate(-14.12) scale(0.559) translate(-531.72 -75.76)" text-anchor="middle" dominant-baseline="middle">米</text>
    <text x="888.11" y="120.77" font-size="26" fill="#b69be9" class="flight-far" opacity="0.36" transform="translate(888.11 120.77) rotate(-9.61) scale(0.408) translate(-888.11 -120.77)" text-anchor="middle" dominant-baseline="middle">米</text>
    <text x="718.87" y="259.78" font-size="56" fill="#b69be9" class="flight-mid" opacity="0.528" transform="translate(718.87 259.78) rotate(0.39) scale(0.725) translate(-718.87 -259.78)" text-anchor="middle" dominant-baseline="middle">米</text>
    <text x="695.23" y="343.7" font-size="56" fill="#b69be9" class="flight-mid" opacity="0.528" transform="translate(695.23 343.7) rotate(10.38) scale(0.914) translate(-695.23 -343.7)" text-anchor="middle" dominant-baseline="middle">米</text>
    <text x="499.69" y="386.22" font-size="26" fill="#f3bd86" class="flight-far" opacity="0.36" transform="translate(499.69 386.22) rotate(14.02) scale(0.581) translate(-499.69 -386.22)" text-anchor="middle" dominant-baseline="middle">米</text>
    <text x="237.69" y="364.29" font-size="26" fill="#9ce7e4" class="flight-far" opacity="0.36" transform="translate(237.69 364.29) rotate(10.04) scale(0.409) translate(-237.69 -364.29)" text-anchor="middle" dominant-baseline="middle">米</text>
    <text x="76.42" y="260.45" font-size="132" fill="#b69be9" class="flight-near" opacity="0.95" transform="translate(76.42 260.45) rotate(0.83) scale(0.984) translate(-76.42 -260.45)" text-anchor="middle" dominant-baseline="middle">米</text>
    <text x="145.27" y="134.28" font-size="56" fill="#b69be9" class="flight-mid" opacity="0.528" transform="translate(145.27 134.28) rotate(-9.24) scale(0.911) translate(-145.27 -134.28)" text-anchor="middle" dominant-baseline="middle">米</text>
    <text x="485.62" y="59.61" font-size="184" fill="#b69be9" class="flight-near" opacity="0.95" transform="translate(485.62 59.61) rotate(-13.11) scale(1.028) translate(-485.62 -59.61)" text-anchor="middle" dominant-baseline="middle">米</text>
    <text x="655.11" y="194.47" font-size="56" fill="#b69be9" class="flight-mid" opacity="0.528" transform="translate(655.11 194.47) rotate(-10.22) scale(0.514) translate(-655.11 -194.47)" text-anchor="middle" dominant-baseline="middle">米</text>
    <text x="773.33" y="250.27" font-size="26" fill="#9ce7e4" class="flight-far" opacity="0.36" transform="translate(773.33 250.27) rotate(-1.16) scale(0.549) translate(-773.33 -250.27)" text-anchor="middle" dominant-baseline="middle">米</text>
    <text x="747.86" y="339.05" font-size="56" fill="#b69be9" class="flight-mid" opacity="0.528" transform="translate(747.86 339.05) rotate(8.95) scale(0.922) translate(-747.86 -339.05)" text-anchor="middle" dominant-baseline="middle">米</text>
    <text x="541.4" y="405.66" font-size="26" fill="#b69be9" class="flight-far" opacity="0.36" transform="translate(541.4 405.66) rotate(13.82) scale(0.617) translate(-541.4 -405.66)" text-anchor="middle" dominant-baseline="middle">米</text>
    <text x="238.24" y="391.16" font-size="26" fill="#f3bd86" class="flight-far" opacity="0.36" transform="translate(238.24 391.16) rotate(11.05) scale(0.413) translate(-238.24 -391.16)" text-anchor="middle" dominant-baseline="middle">米</text>
    <text x="27.18" y="285.07" font-size="26" fill="#b69be9" class="flight-far" opacity="0.36" transform="translate(27.18 285.07) rotate(1.89) scale(0.532) translate(-27.18 -285.07)" text-anchor="middle" dominant-baseline="middle">米</text>
    <text x="70.46" y="135.56" font-size="56" fill="#9ce7e4" class="flight-mid" opacity="0.528" transform="translate(70.46 135.56) rotate(-8.27) scale(0.914) translate(-70.46 -135.56)" text-anchor="middle" dominant-baseline="middle">米</text>
    <text x="457.2" y="172.36" font-size="56" fill="#b69be9" class="flight-mid" opacity="0.528" transform="translate(457.2 172.36) rotate(-13.82) scale(0.776) translate(-457.2 -172.36)" text-anchor="middle" dominant-baseline="middle">米</text>
    <text x="675.14" y="175.04" font-size="132" fill="#b69be9" class="flight-near" opacity="0.95" transform="translate(675.14 175.04) rotate(-11.94) scale(0.735) translate(-675.14 -175.04)" text-anchor="middle" dominant-baseline="middle">米</text>
    <text x="820.73" y="236.98" font-size="26" fill="#b69be9" class="flight-far" opacity="0.36" transform="translate(820.73 236.98) rotate(-2.75) scale(0.51) translate(-820.73 -236.98)" text-anchor="middle" dominant-baseline="middle">米</text>
    <text x="814.79" y="337.76" font-size="56" fill="#b69be9" class="flight-mid" opacity="0.528" transform="translate(814.79 337.76) rotate(8.06) scale(0.912) translate(-814.79 -337.76)" text-anchor="middle" dominant-baseline="middle">米</text>
    <text x="595.11" y="420.86" font-size="26" fill="#9ce7e4" class="flight-far" opacity="0.36" transform="translate(595.11 420.86) rotate(13.58) scale(0.656) translate(-595.11 -420.86)" text-anchor="middle" dominant-baseline="middle">米</text>
    <text x="248.34" y="416.83" font-size="184" fill="#b69be9" class="flight-near" opacity="0.95" transform="translate(248.34 416.83) rotate(11.96) scale(0.726) translate(-248.34 -416.83)" text-anchor="middle" dominant-baseline="middle">米</text>
    <text x="-7.47" y="315.14" font-size="26" fill="#f3bd86" class="flight-far" opacity="0.36" transform="translate(-7.47 315.14) rotate(3.44) scale(0.492) translate(7.47 -315.14)" text-anchor="middle" dominant-baseline="middle">米</text>
    <text x="304.45" y="218.52" font-size="56" fill="#b69be9" class="flight-mid" opacity="0.528" transform="translate(304.45 218.52) rotate(-6.49) scale(0.887) translate(-304.45 -218.52)" text-anchor="middle" dominant-baseline="middle">米</text>
    <text x="420.26" y="154.76" font-size="26" fill="#b69be9" class="flight-far" opacity="0.36" transform="translate(420.26 154.76) rotate(-13.42) scale(0.671) translate(-420.26 -154.76)" text-anchor="middle" dominant-baseline="middle">米</text>
    <text x="656.46" y="150.32" font-size="26" fill="#9ce7e4" class="flight-far" opacity="0.36" transform="translate(656.46 150.32) rotate(-12.25) scale(0.437) translate(-656.46 -150.32)" text-anchor="middle" dominant-baseline="middle">米</text>
    <text x="858.27" y="215.1" font-size="26" fill="#b69be9" class="flight-far" opacity="0.36" transform="translate(858.27 215.1) rotate(-4.32) scale(0.479) translate(-858.27 -215.1)" text-anchor="middle" dominant-baseline="middle">米</text>
    <text x="877.35" y="336.64" font-size="56" fill="#b69be9" class="flight-mid" opacity="0.528" transform="translate(877.35 336.64) rotate(6.2) scale(0.863) translate(-877.35 -336.64)" text-anchor="middle" dominant-baseline="middle">米</text>
    <text x="660.37" y="433.65" font-size="132" fill="#b69be9" class="flight-near" opacity="0.95" transform="translate(660.37 433.65) rotate(12.33) scale(1.175) translate(-660.37 -433.65)" text-anchor="middle" dominant-baseline="middle">米</text>
    <text x="278.93" y="445.95" font-size="26" fill="#b69be9" class="flight-far" opacity="0.36" transform="translate(278.93 445.95) rotate(12.77) scale(0.451) translate(-278.93 -445.95)" text-anchor="middle" dominant-baseline="middle">米</text>
    <text x="292.56" y="289.08" font-size="56" fill="#9ce7e4" class="flight-mid" opacity="0.528" transform="translate(292.56 289.08) rotate(4.92) scale(0.579) translate(-292.56 -289.08)" text-anchor="middle" dominant-baseline="middle">米</text>
    <text x="244.44" y="214.42" font-size="56" fill="#f3bd86" class="flight-mid" opacity="0.528" transform="translate(244.44 214.42) rotate(-5.45) scale(0.871) translate(-244.44 -214.42)" text-anchor="middle" dominant-baseline="middle">米</text>
    <text x="374.78" y="144.3" font-size="26" fill="#b69be9" class="flight-far" opacity="0.36" transform="translate(374.78 144.3) rotate(-12.69) scale(0.699) translate(-374.78 -144.3)" text-anchor="middle" dominant-baseline="middle">米</text>
    <text x="638.04" y="123.17" font-size="26" fill="#b69be9" class="flight-far" opacity="0.36" transform="translate(638.04 123.17) rotate(-13.27) scale(0.463) translate(-638.04 -123.17)" text-anchor="middle" dominant-baseline="middle">米</text>
  </g>
  <g class="loom-field-center-glyph" text-anchor="middle" dominant-baseline="middle">
    <text x="500" y="260" font-size="140" fill="#f4f4f0" opacity="0.88">米</text>
    <text x="500" y="360" font-size="18" fill="#d97706" letter-spacing="2" opacity="0.95">RECURRENCE</text>
  </g>
</svg>