<!--
  TD613 Flow-Core Semantic Motion Bridge Visual Witness [Direction: Organza Choreography]
  Relation: protected_continuity (cōl)
  Active View ID: cockpit
  Carrier Count: 39 (Distribution: 6 near / 13 mid / 20 far)
  Reduced Motion: DISABLED
  Viewport: 1000x520 (viewBox: 0 0 1000 520)
  Visual Theory: Haute Couture Diaphanous Membrane, Moiré Pleats & Calligraphic Silk
  Claim Ceiling: VISUAL_RELATION != EXTERNAL_REALITY | AMBIENT_MOTION != EVENT_HISTORY | AESTHETIC_BINDING != EMPIRICAL_VALIDATION
-->
<svg xmlns="http://www.w3.org/2000/svg" viewBox="0 0 1000 520" width="1000" height="520" style="background:#05040a;">
  <defs>
    <radialGradient id="organzaAura" cx="50%" cy="50%" r="55%">
      <stop offset="0%" stop-color="#2a1240" stop-opacity="0.45"/>
      <stop offset="60%" stop-color="#0e071c" stop-opacity="0.25"/>
      <stop offset="100%" stop-color="#05040a" stop-opacity="0"/>
    </radialGradient>
    <linearGradient id="silkRibbon" x1="0%" y1="0%" x2="100%" y2="100%">
      <stop offset="0%" stop-color="#c4b5fd"/>
      <stop offset="50%" stop-color="#f59e0b"/>
      <stop offset="100%" stop-color="#f43f5e"/>
    </linearGradient>
  </defs>
  <rect width="100%" height="100%" fill="url(#organzaAura)"/>
  <g class="organza-field-flight" aria-hidden="true" data-active-relation="protected_continuity" data-visual-direction="organza_choreography">
    <g class="organza-near" transform="translate(666.97 276.27) rotate(1.15) scale(0.776) translate(-666.97 -276.27)" style="mix-blend-mode: screen;">
      <path d="M618.97,292.27 Q666.97,246.26999999999998 714.97,288.27" fill="none" stroke="url(#silkRibbon)" stroke-width="2.6" opacity="0.6137"/>
      <path d="M622.97,296.27 Q670.97,250.26999999999998 718.97,291.27" fill="none" stroke="#f43f5e" stroke-width="0.8" opacity="0.3876"/>
      <text x="666.97" y="281.27" font-size="32" font-family="'Bodoni Moda', 'Playfair Display', 'PingFang SC', serif" font-style="italic" fill="#fdf6e2" opacity="0.5814" text-anchor="middle" dominant-baseline="middle">cōl</text>
    </g>
    <g class="organza-far" transform="translate(616.62 330.31) rotate(2.94) scale(0.495) translate(-616.62 -330.31)">
      <circle cx="616.62" cy="330.31" r="2" fill="#e9d5ff" opacity="0.2205"/>
      <circle cx="616.62" cy="330.31" r="6" fill="#c4b5fd" opacity="0.06125"/>
      <text x="622.62" y="333.31" font-size="9" font-family="'PingFang SC', sans-serif" fill="#a855f7" opacity="0.17149999999999999">cōl</text>
    </g>
    <g class="organza-far" transform="translate(493.36 357) rotate(3.98) scale(0.544) translate(-493.36 -357)">
      <circle cx="493.36" cy="357" r="2" fill="#e9d5ff" opacity="0.2205"/>
      <circle cx="493.36" cy="357" r="6" fill="#c4b5fd" opacity="0.06125"/>
      <text x="499.36" y="360" font-size="9" font-family="'PingFang SC', sans-serif" fill="#a855f7" opacity="0.17149999999999999">cōl</text>
    </g>
    <g class="organza-far" transform="translate(352.26 346.66) rotate(2.99) scale(0.601) translate(-352.26 -346.66)">
      <circle cx="352.26" cy="346.66" r="2" fill="#e9d5ff" opacity="0.2205"/>
      <circle cx="352.26" cy="346.66" r="6" fill="#c4b5fd" opacity="0.06125"/>
      <text x="358.26" y="349.66" font-size="9" font-family="'PingFang SC', sans-serif" fill="#a855f7" opacity="0.17149999999999999">cōl</text>
    </g>
    <g class="organza-mid" transform="translate(233.23 290.99) rotate(1.06) scale(0.54) translate(-233.23 -290.99)">
      <ellipse cx="233.23" cy="290.99" rx="26" ry="11" fill="#c4b5fd" fill-opacity="0.053849999999999995" stroke="#c4b5fd" stroke-width="0.8" opacity="0.359"/>
      <line x1="215.23" y1="290.99" x2="251.23" y2="290.99" stroke="#f59e0b" stroke-width="0.6" opacity="0.25129999999999997"/>
      <text x="233.23" y="294.99" font-size="15" font-family="'PingFang SC', sans-serif" fill="#fdf6e2" opacity="0.30515" text-anchor="middle" dominant-baseline="middle">cōl</text>
    </g>
    <g class="organza-far" transform="translate(335.91 231.21) rotate(-1.32) scale(0.493) translate(-335.91 -231.21)">
      <circle cx="335.91" cy="231.21" r="2" fill="#e9d5ff" opacity="0.2205"/>
      <circle cx="335.91" cy="231.21" r="6" fill="#c4b5fd" opacity="0.06125"/>
      <text x="341.91" y="234.21" font-size="9" font-family="'PingFang SC', sans-serif" fill="#a855f7" opacity="0.17149999999999999">cōl</text>
    </g>
    <g class="organza-far" transform="translate(394.18 184.53) rotate(-3.34) scale(0.546) translate(-394.18 -184.53)">
      <circle cx="394.18" cy="184.53" r="2" fill="#e9d5ff" opacity="0.2205"/>
      <circle cx="394.18" cy="184.53" r="6" fill="#c4b5fd" opacity="0.06125"/>
      <text x="400.18" y="187.53" font-size="9" font-family="'PingFang SC', sans-serif" fill="#a855f7" opacity="0.17149999999999999">cōl</text>
    </g>
    <g class="organza-mid" transform="translate(515.98 159.38) rotate(-3.96) scale(0.737) translate(-515.98 -159.38)">
      <ellipse cx="515.98" cy="159.38" rx="26" ry="11" fill="#c4b5fd" fill-opacity="0.053849999999999995" stroke="#c4b5fd" stroke-width="0.8" opacity="0.359"/>
      <line x1="497.98" y1="159.38" x2="533.98" y2="159.38" stroke="#f59e0b" stroke-width="0.6" opacity="0.25129999999999997"/>
      <text x="515.98" y="163.38" font-size="15" font-family="'PingFang SC', sans-serif" fill="#fdf6e2" opacity="0.30515" text-anchor="middle" dominant-baseline="middle">cōl</text>
    </g>
    <g class="organza-mid" transform="translate(674.15 184.31) rotate(-2.99) scale(0.547) translate(-674.15 -184.31)">
      <ellipse cx="674.15" cy="184.31" rx="26" ry="11" fill="#c4b5fd" fill-opacity="0.053849999999999995" stroke="#c4b5fd" stroke-width="0.8" opacity="0.359"/>
      <line x1="656.15" y1="184.31" x2="692.15" y2="184.31" stroke="#f59e0b" stroke-width="0.6" opacity="0.25129999999999997"/>
      <text x="674.15" y="188.31" font-size="15" font-family="'PingFang SC', sans-serif" fill="#fdf6e2" opacity="0.30515" text-anchor="middle" dominant-baseline="middle">cōl</text>
    </g>
    <g class="organza-far" transform="translate(763.98 235.07) rotate(-0.83) scale(0.493) translate(-763.98 -235.07)">
      <circle cx="763.98" cy="235.07" r="2" fill="#e9d5ff" opacity="0.2205"/>
      <circle cx="763.98" cy="235.07" r="6" fill="#c4b5fd" opacity="0.06125"/>
      <text x="769.98" y="238.07" font-size="9" font-family="'PingFang SC', sans-serif" fill="#a855f7" opacity="0.17149999999999999">cōl</text>
    </g>
    <g class="organza-far" transform="translate(658.17 292.5) rotate(1.84) scale(0.544) translate(-658.17 -292.5)">
      <circle cx="658.17" cy="292.5" r="2" fill="#e9d5ff" opacity="0.2205"/>
      <circle cx="658.17" cy="292.5" r="6" fill="#c4b5fd" opacity="0.06125"/>
      <text x="664.17" y="295.5" font-size="9" font-family="'PingFang SC', sans-serif" fill="#a855f7" opacity="0.17149999999999999">cōl</text>
    </g>
    <g class="organza-near" transform="translate(592.38 333.86) rotate(3.53) scale(1.019) translate(-592.38 -333.86)" style="mix-blend-mode: screen;">
      <path d="M544.38,349.86 Q592.38,303.86 640.38,345.86" fill="none" stroke="url(#silkRibbon)" stroke-width="2.6" opacity="0.6137"/>
      <path d="M548.38,353.86 Q596.38,307.86 644.38,348.86" fill="none" stroke="#f43f5e" stroke-width="0.8" opacity="0.3876"/>
      <text x="592.38" y="338.86" font-size="32" font-family="'Bodoni Moda', 'Playfair Display', 'PingFang SC', serif" font-style="italic" fill="#fdf6e2" opacity="0.5814" text-anchor="middle" dominant-baseline="middle">cōl</text>
    </g>
    <g class="organza-mid" transform="translate(462.92 354.54) rotate(4.15) scale(0.546) translate(-462.92 -354.54)">
      <ellipse cx="462.92" cy="354.54" rx="26" ry="11" fill="#c4b5fd" fill-opacity="0.053849999999999995" stroke="#c4b5fd" stroke-width="0.8" opacity="0.359"/>
      <line x1="444.92" y1="354.54" x2="480.92" y2="354.54" stroke="#f59e0b" stroke-width="0.6" opacity="0.25129999999999997"/>
      <text x="462.92" y="358.54" font-size="15" font-family="'PingFang SC', sans-serif" fill="#fdf6e2" opacity="0.30515" text-anchor="middle" dominant-baseline="middle">cōl</text>
    </g>
    <g class="organza-near" transform="translate(340.63 343.56) rotate(3.06) scale(0.853) translate(-340.63 -343.56)" style="mix-blend-mode: screen;">
      <path d="M292.63,359.56 Q340.63,313.56 388.63,355.56" fill="none" stroke="url(#silkRibbon)" stroke-width="2.6" opacity="0.6137"/>
      <path d="M296.63,363.56 Q344.63,317.56 392.63,358.56" fill="none" stroke="#f43f5e" stroke-width="0.8" opacity="0.3876"/>
      <text x="340.63" y="348.56" font-size="32" font-family="'Bodoni Moda', 'Playfair Display', 'PingFang SC', serif" font-style="italic" fill="#fdf6e2" opacity="0.5814" text-anchor="middle" dominant-baseline="middle">cōl</text>
    </g>
    <g class="organza-mid" transform="translate(228.17 273.37) rotate(0.41) scale(0.676) translate(-228.17 -273.37)">
      <ellipse cx="228.17" cy="273.37" rx="26" ry="11" fill="#c4b5fd" fill-opacity="0.053849999999999995" stroke="#c4b5fd" stroke-width="0.8" opacity="0.359"/>
      <line x1="210.17" y1="273.37" x2="246.17" y2="273.37" stroke="#f59e0b" stroke-width="0.6" opacity="0.25129999999999997"/>
      <text x="228.17" y="277.37" font-size="15" font-family="'PingFang SC', sans-serif" fill="#fdf6e2" opacity="0.30515" text-anchor="middle" dominant-baseline="middle">cōl</text>
    </g>
    <g class="organza-far" transform="translate(346.06 222.64) rotate(-2.02) scale(0.595) translate(-346.06 -222.64)">
      <circle cx="346.06" cy="222.64" r="2" fill="#e9d5ff" opacity="0.2205"/>
      <circle cx="346.06" cy="222.64" r="6" fill="#c4b5fd" opacity="0.06125"/>
      <text x="352.06" y="225.64" font-size="9" font-family="'PingFang SC', sans-serif" fill="#a855f7" opacity="0.17149999999999999">cōl</text>
    </g>
    <g class="organza-mid" transform="translate(413.68 177.99) rotate(-3.48) scale(0.546) translate(-413.68 -177.99)">
      <ellipse cx="413.68" cy="177.99" rx="26" ry="11" fill="#c4b5fd" fill-opacity="0.053849999999999995" stroke="#c4b5fd" stroke-width="0.8" opacity="0.359"/>
      <line x1="395.68" y1="177.99" x2="431.68" y2="177.99" stroke="#f59e0b" stroke-width="0.6" opacity="0.25129999999999997"/>
      <text x="413.68" y="181.99" font-size="15" font-family="'PingFang SC', sans-serif" fill="#fdf6e2" opacity="0.30515" text-anchor="middle" dominant-baseline="middle">cōl</text>
    </g>
    <g class="organza-far" transform="translate(544 163.07) rotate(-3.92) scale(0.491) translate(-544 -163.07)">
      <circle cx="544" cy="163.07" r="2" fill="#e9d5ff" opacity="0.2205"/>
      <circle cx="544" cy="163.07" r="6" fill="#c4b5fd" opacity="0.06125"/>
      <text x="550" y="166.07" font-size="9" font-family="'PingFang SC', sans-serif" fill="#a855f7" opacity="0.17149999999999999">cōl</text>
    </g>
    <g class="organza-far" transform="translate(691.08 190.88) rotate(-2.57) scale(0.547) translate(-691.08 -190.88)">
      <circle cx="691.08" cy="190.88" r="2" fill="#e9d5ff" opacity="0.2205"/>
      <circle cx="691.08" cy="190.88" r="6" fill="#c4b5fd" opacity="0.06125"/>
      <text x="697.08" y="193.88" font-size="9" font-family="'PingFang SC', sans-serif" fill="#a855f7" opacity="0.17149999999999999">cōl</text>
    </g>
    <g class="organza-far" transform="translate(770.1 250.26) rotate(-0.18) scale(0.596) translate(-770.1 -250.26)">
      <circle cx="770.1" cy="250.26" r="2" fill="#e9d5ff" opacity="0.2205"/>
      <circle cx="770.1" cy="250.26" r="6" fill="#c4b5fd" opacity="0.06125"/>
      <text x="776.1" y="253.26" font-size="9" font-family="'PingFang SC', sans-serif" fill="#a855f7" opacity="0.17149999999999999">cōl</text>
    </g>
    <g class="organza-mid" transform="translate(647.33 301.12) rotate(1.89) scale(0.545) translate(-647.33 -301.12)">
      <ellipse cx="647.33" cy="301.12" rx="26" ry="11" fill="#c4b5fd" fill-opacity="0.053849999999999995" stroke="#c4b5fd" stroke-width="0.8" opacity="0.359"/>
      <line x1="629.33" y1="301.12" x2="665.33" y2="301.12" stroke="#f59e0b" stroke-width="0.6" opacity="0.25129999999999997"/>
      <text x="647.33" y="305.12" font-size="15" font-family="'PingFang SC', sans-serif" fill="#fdf6e2" opacity="0.30515" text-anchor="middle" dominant-baseline="middle">cōl</text>
    </g>
    <g class="organza-mid" transform="translate(566.31 339.37) rotate(3.93) scale(0.609) translate(-566.31 -339.37)">
      <ellipse cx="566.31" cy="339.37" rx="26" ry="11" fill="#c4b5fd" fill-opacity="0.053849999999999995" stroke="#c4b5fd" stroke-width="0.8" opacity="0.359"/>
      <line x1="548.31" y1="339.37" x2="584.31" y2="339.37" stroke="#f59e0b" stroke-width="0.6" opacity="0.25129999999999997"/>
      <text x="566.31" y="343.37" font-size="15" font-family="'PingFang SC', sans-serif" fill="#fdf6e2" opacity="0.30515" text-anchor="middle" dominant-baseline="middle">cōl</text>
    </g>
    <g class="organza-near" transform="translate(429.83 350.51) rotate(3.82) scale(0.919) translate(-429.83 -350.51)" style="mix-blend-mode: screen;">
      <path d="M381.83,366.51 Q429.83,320.51 477.83,362.51" fill="none" stroke="url(#silkRibbon)" stroke-width="2.6" opacity="0.6137"/>
      <path d="M385.83,370.51 Q433.83,324.51 481.83,365.51" fill="none" stroke="#f43f5e" stroke-width="0.8" opacity="0.3876"/>
      <text x="429.83" y="355.51" font-size="32" font-family="'Bodoni Moda', 'Playfair Display', 'PingFang SC', serif" font-style="italic" fill="#fdf6e2" opacity="0.5814" text-anchor="middle" dominant-baseline="middle">cōl</text>
    </g>
    <g class="organza-far" transform="translate(306.73 328.45) rotate(2.05) scale(0.593) translate(-306.73 -328.45)">
      <circle cx="306.73" cy="328.45" r="2" fill="#e9d5ff" opacity="0.2205"/>
      <circle cx="306.73" cy="328.45" r="6" fill="#c4b5fd" opacity="0.06125"/>
      <text x="312.73" y="331.45" font-size="9" font-family="'PingFang SC', sans-serif" fill="#a855f7" opacity="0.17149999999999999">cōl</text>
    </g>
    <g class="organza-mid" transform="translate(224.55 260.91) rotate(0.25) scale(0.543) translate(-224.55 -260.91)">
      <ellipse cx="224.55" cy="260.91" rx="26" ry="11" fill="#c4b5fd" fill-opacity="0.053849999999999995" stroke="#c4b5fd" stroke-width="0.8" opacity="0.359"/>
      <line x1="206.55" y1="260.91" x2="242.55" y2="260.91" stroke="#f59e0b" stroke-width="0.6" opacity="0.25129999999999997"/>
      <text x="224.55" y="264.91" font-size="15" font-family="'PingFang SC', sans-serif" fill="#fdf6e2" opacity="0.30515" text-anchor="middle" dominant-baseline="middle">cōl</text>
    </g>
    <g class="organza-far" transform="translate(359.44 212.85) rotate(-2.4) scale(0.498) translate(-359.44 -212.85)">
      <circle cx="359.44" cy="212.85" r="2" fill="#e9d5ff" opacity="0.2205"/>
      <circle cx="359.44" cy="212.85" r="6" fill="#c4b5fd" opacity="0.06125"/>
      <text x="365.44" y="215.85" font-size="9" font-family="'PingFang SC', sans-serif" fill="#a855f7" opacity="0.17149999999999999">cōl</text>
    </g>
    <g class="organza-near" transform="translate(435.25 170.71) rotate(-3.75) scale(0.933) translate(-435.25 -170.71)" style="mix-blend-mode: screen;">
      <path d="M387.25,186.71 Q435.25,140.71 483.25,182.71" fill="none" stroke="url(#silkRibbon)" stroke-width="2.6" opacity="0.6137"/>
      <path d="M391.25,190.71 Q439.25,144.71 487.25,185.71" fill="none" stroke="#f43f5e" stroke-width="0.8" opacity="0.3876"/>
      <text x="435.25" y="175.71" font-size="32" font-family="'Bodoni Moda', 'Playfair Display', 'PingFang SC', serif" font-style="italic" fill="#fdf6e2" opacity="0.5814" text-anchor="middle" dominant-baseline="middle">cōl</text>
    </g>
    <g class="organza-far" transform="translate(573.34 165.03) rotate(-3.78) scale(0.598) translate(-573.34 -165.03)">
      <circle cx="573.34" cy="165.03" r="2" fill="#e9d5ff" opacity="0.2205"/>
      <circle cx="573.34" cy="165.03" r="6" fill="#c4b5fd" opacity="0.06125"/>
      <text x="579.34" y="168.03" font-size="9" font-family="'PingFang SC', sans-serif" fill="#a855f7" opacity="0.17149999999999999">cōl</text>
    </g>
    <g class="organza-mid" transform="translate(707.17 204.31) rotate(-2.29) scale(0.54) translate(-707.17 -204.31)">
      <ellipse cx="707.17" cy="204.31" rx="26" ry="11" fill="#c4b5fd" fill-opacity="0.053849999999999995" stroke="#c4b5fd" stroke-width="0.8" opacity="0.359"/>
      <line x1="689.17" y1="204.31" x2="725.17" y2="204.31" stroke="#f59e0b" stroke-width="0.6" opacity="0.25129999999999997"/>
      <text x="707.17" y="208.31" font-size="15" font-family="'PingFang SC', sans-serif" fill="#fdf6e2" opacity="0.30515" text-anchor="middle" dominant-baseline="middle">cōl</text>
    </g>
    <g class="organza-far" transform="translate(769.89 265.94) rotate(0.15) scale(0.492) translate(-769.89 -265.94)">
      <circle cx="769.89" cy="265.94" r="2" fill="#e9d5ff" opacity="0.2205"/>
      <circle cx="769.89" cy="265.94" r="6" fill="#c4b5fd" opacity="0.06125"/>
      <text x="775.89" y="268.94" font-size="9" font-family="'PingFang SC', sans-serif" fill="#a855f7" opacity="0.17149999999999999">cōl</text>
    </g>
    <g class="organza-far" transform="translate(635.27 308.74) rotate(2.61) scale(0.546) translate(-635.27 -308.74)">
      <circle cx="635.27" cy="308.74" r="2" fill="#e9d5ff" opacity="0.2205"/>
      <circle cx="635.27" cy="308.74" r="6" fill="#c4b5fd" opacity="0.06125"/>
      <text x="641.27" y="311.74" font-size="9" font-family="'PingFang SC', sans-serif" fill="#a855f7" opacity="0.17149999999999999">cōl</text>
    </g>
    <g class="organza-far" transform="translate(543.85 343.18) rotate(3.86) scale(0.596) translate(-543.85 -343.18)">
      <circle cx="543.85" cy="343.18" r="2" fill="#e9d5ff" opacity="0.2205"/>
      <circle cx="543.85" cy="343.18" r="6" fill="#c4b5fd" opacity="0.06125"/>
      <text x="549.85" y="346.18" font-size="9" font-family="'PingFang SC', sans-serif" fill="#a855f7" opacity="0.17149999999999999">cōl</text>
    </g>
    <g class="organza-mid" transform="translate(408.72 346.65) rotate(3.76) scale(0.55) translate(-408.72 -346.65)">
      <ellipse cx="408.72" cy="346.65" rx="26" ry="11" fill="#c4b5fd" fill-opacity="0.053849999999999995" stroke="#c4b5fd" stroke-width="0.8" opacity="0.359"/>
      <line x1="390.72" y1="346.65" x2="426.72" y2="346.65" stroke="#f59e0b" stroke-width="0.6" opacity="0.25129999999999997"/>
      <text x="408.72" y="350.65" font-size="15" font-family="'PingFang SC', sans-serif" fill="#fdf6e2" opacity="0.30515" text-anchor="middle" dominant-baseline="middle">cōl</text>
    </g>
    <g class="organza-near" transform="translate(293.37 313.15) rotate(1.26) scale(0.855) translate(-293.37 -313.15)" style="mix-blend-mode: screen;">
      <path d="M245.37,329.15 Q293.37,283.15 341.37,325.15" fill="none" stroke="url(#silkRibbon)" stroke-width="2.6" opacity="0.6137"/>
      <path d="M249.37,333.15 Q297.37,287.15 345.37,328.15" fill="none" stroke="#f43f5e" stroke-width="0.8" opacity="0.3876"/>
      <text x="293.37" y="318.15" font-size="32" font-family="'Bodoni Moda', 'Playfair Display', 'PingFang SC', serif" font-style="italic" fill="#fdf6e2" opacity="0.5814" text-anchor="middle" dominant-baseline="middle">cōl</text>
    </g>
    <g class="organza-far" transform="translate(228.41 245.33) rotate(-0.57) scale(0.543) translate(-228.41 -245.33)">
      <circle cx="228.41" cy="245.33" r="2" fill="#e9d5ff" opacity="0.2205"/>
      <circle cx="228.41" cy="245.33" r="6" fill="#c4b5fd" opacity="0.06125"/>
      <text x="234.41" y="248.33" font-size="9" font-family="'PingFang SC', sans-serif" fill="#a855f7" opacity="0.17149999999999999">cōl</text>
    </g>
    <g class="organza-mid" transform="translate(371.3 206.72) rotate(-3) scale(0.734) translate(-371.3 -206.72)">
      <ellipse cx="371.3" cy="206.72" rx="26" ry="11" fill="#c4b5fd" fill-opacity="0.053849999999999995" stroke="#c4b5fd" stroke-width="0.8" opacity="0.359"/>
      <line x1="353.3" y1="206.72" x2="389.3" y2="206.72" stroke="#f59e0b" stroke-width="0.6" opacity="0.25129999999999997"/>
      <text x="371.3" y="210.72" font-size="15" font-family="'PingFang SC', sans-serif" fill="#fdf6e2" opacity="0.30515" text-anchor="middle" dominant-baseline="middle">cōl</text>
    </g>
    <g class="organza-mid" transform="translate(462.16 171.96) rotate(-4.01) scale(0.543) translate(-462.16 -171.96)">
      <ellipse cx="462.16" cy="171.96" rx="26" ry="11" fill="#c4b5fd" fill-opacity="0.053849999999999995" stroke="#c4b5fd" stroke-width="0.8" opacity="0.359"/>
      <line x1="444.16" y1="171.96" x2="480.16" y2="171.96" stroke="#f59e0b" stroke-width="0.6" opacity="0.25129999999999997"/>
      <text x="462.16" y="175.96" font-size="15" font-family="'PingFang SC', sans-serif" fill="#fdf6e2" opacity="0.30515" text-anchor="middle" dominant-baseline="middle">cōl</text>
    </g>
    <g class="organza-far" transform="translate(600.28 172.7) rotate(-3.62) scale(0.49) translate(-600.28 -172.7)">
      <circle cx="600.28" cy="172.7" r="2" fill="#e9d5ff" opacity="0.2205"/>
      <circle cx="600.28" cy="172.7" r="6" fill="#c4b5fd" opacity="0.06125"/>
      <text x="606.28" y="175.7" font-size="9" font-family="'PingFang SC', sans-serif" fill="#a855f7" opacity="0.17149999999999999">cōl</text>
    </g>
    <g class="organza-far" transform="translate(721.17 211.46) rotate(-1.86) scale(0.545) translate(-721.17 -211.46)">
      <circle cx="721.17" cy="211.46" r="2" fill="#e9d5ff" opacity="0.2205"/>
      <circle cx="721.17" cy="211.46" r="6" fill="#c4b5fd" opacity="0.06125"/>
      <text x="727.17" y="214.46" font-size="9" font-family="'PingFang SC', sans-serif" fill="#a855f7" opacity="0.17149999999999999">cōl</text>
    </g>
  </g>
  <g class="organza-center-glyph" text-anchor="middle" dominant-baseline="middle">
    <circle cx="500" cy="260" r="82" fill="none" stroke="#f59e0b" stroke-width="0.8" stroke-dasharray="4 6" opacity="0.6"/>
    <circle cx="500" cy="260" r="92" fill="none" stroke="#c4b5fd" stroke-width="0.5" stroke-dasharray="2 4" opacity="0.4"/>
    <text x="500" y="268" font-size="118" font-family="'Bodoni Moda', 'Didot', 'PingFang SC', serif" font-style="italic" font-weight="300" fill="#fdf6e2" opacity="0.95">cōl</text>
    <text x="500" y="328" font-size="10" font-family="'Bodoni Moda', serif" font-style="italic" fill="#c4b5fd" letter-spacing="4" opacity="0.9">SEQUENCE 6 // HAUTE COUTURE // PROTECTED_CONTINUITY</text>
  </g>
</svg>